<mxfile host="app.diagrams.net" modified="2023-10-26T18:58:42.081Z" agent="Mozilla/5.0 (Macintosh; Intel Mac OS X 10.15; rv:109.0) Gecko/20100101 Firefox/118.0" etag="Nthc-z8wwhRqTOyaHaV7" version="22.0.8" type="github">
  <diagram id="C5RBs43oDa-KdzZeNtuy" name="Page-1">
    <mxGraphModel dx="900" dy="547" grid="1" gridSize="10" guides="1" tooltips="1" connect="1" arrows="1" fold="1" page="1" pageScale="1" pageWidth="827" pageHeight="1169" math="0" shadow="0">
      <root>
        <mxCell id="WIyWlLk6GJQsqaUBKTNV-0" />
        <mxCell id="WIyWlLk6GJQsqaUBKTNV-1" parent="WIyWlLk6GJQsqaUBKTNV-0" />
        <mxCell id="zkfFHV4jXpPFQw0GAbJ--0" value="Car" style="swimlane;fontStyle=2;align=center;verticalAlign=top;childLayout=stackLayout;horizontal=1;startSize=26;horizontalStack=0;resizeParent=1;resizeLast=0;collapsible=1;marginBottom=0;rounded=0;shadow=0;strokeWidth=1;" parent="WIyWlLk6GJQsqaUBKTNV-1" vertex="1">
          <mxGeometry x="220" y="120" width="160" height="110" as="geometry">
            <mxRectangle x="230" y="140" width="160" height="26" as="alternateBounds" />
          </mxGeometry>
        </mxCell>
        <mxCell id="zkfFHV4jXpPFQw0GAbJ--1" value="body: String" style="text;align=left;verticalAlign=top;spacingLeft=4;spacingRight=4;overflow=hidden;rotatable=0;points=[[0,0.5],[1,0.5]];portConstraint=eastwest;" parent="zkfFHV4jXpPFQw0GAbJ--0" vertex="1">
          <mxGeometry y="26" width="160" height="26" as="geometry" />
        </mxCell>
        <mxCell id="zkfFHV4jXpPFQw0GAbJ--2" value="doorNum: int" style="text;align=left;verticalAlign=top;spacingLeft=4;spacingRight=4;overflow=hidden;rotatable=0;points=[[0,0.5],[1,0.5]];portConstraint=eastwest;rounded=0;shadow=0;html=0;" parent="zkfFHV4jXpPFQw0GAbJ--0" vertex="1">
          <mxGeometry y="52" width="160" height="26" as="geometry" />
        </mxCell>
        <mxCell id="zkfFHV4jXpPFQw0GAbJ--4" value="" style="line;html=1;strokeWidth=1;align=left;verticalAlign=middle;spacingTop=-1;spacingLeft=3;spacingRight=3;rotatable=0;labelPosition=right;points=[];portConstraint=eastwest;" parent="zkfFHV4jXpPFQw0GAbJ--0" vertex="1">
          <mxGeometry y="78" width="160" height="8" as="geometry" />
        </mxCell>
        <mxCell id="zkfFHV4jXpPFQw0GAbJ--17" value="Driver" style="swimlane;fontStyle=0;align=center;verticalAlign=top;childLayout=stackLayout;horizontal=1;startSize=26;horizontalStack=0;resizeParent=1;resizeLast=0;collapsible=1;marginBottom=0;rounded=0;shadow=0;strokeWidth=1;" parent="WIyWlLk6GJQsqaUBKTNV-1" vertex="1">
          <mxGeometry x="508" y="120" width="160" height="110" as="geometry">
            <mxRectangle x="550" y="140" width="160" height="26" as="alternateBounds" />
          </mxGeometry>
        </mxCell>
        <mxCell id="zkfFHV4jXpPFQw0GAbJ--18" value="ID(PK): String" style="text;align=left;verticalAlign=top;spacingLeft=4;spacingRight=4;overflow=hidden;rotatable=0;points=[[0,0.5],[1,0.5]];portConstraint=eastwest;" parent="zkfFHV4jXpPFQw0GAbJ--17" vertex="1">
          <mxGeometry y="26" width="160" height="26" as="geometry" />
        </mxCell>
        <mxCell id="zkfFHV4jXpPFQw0GAbJ--19" value="name: String" style="text;align=left;verticalAlign=top;spacingLeft=4;spacingRight=4;overflow=hidden;rotatable=0;points=[[0,0.5],[1,0.5]];portConstraint=eastwest;rounded=0;shadow=0;html=0;" parent="zkfFHV4jXpPFQw0GAbJ--17" vertex="1">
          <mxGeometry y="52" width="160" height="26" as="geometry" />
        </mxCell>
        <mxCell id="zkfFHV4jXpPFQw0GAbJ--23" value="" style="line;html=1;strokeWidth=1;align=left;verticalAlign=middle;spacingTop=-1;spacingLeft=3;spacingRight=3;rotatable=0;labelPosition=right;points=[];portConstraint=eastwest;" parent="zkfFHV4jXpPFQw0GAbJ--17" vertex="1">
          <mxGeometry y="78" width="160" height="8" as="geometry" />
        </mxCell>
        <mxCell id="zkfFHV4jXpPFQw0GAbJ--26" value="" style="endArrow=ERmany;shadow=0;strokeWidth=1;rounded=0;endFill=0;edgeStyle=elbowEdgeStyle;elbow=vertical;startArrow=ERmany;startFill=0;" parent="WIyWlLk6GJQsqaUBKTNV-1" source="zkfFHV4jXpPFQw0GAbJ--0" target="zkfFHV4jXpPFQw0GAbJ--17" edge="1">
          <mxGeometry x="0.5" y="41" relative="1" as="geometry">
            <mxPoint x="380" y="192" as="sourcePoint" />
            <mxPoint x="540" y="192" as="targetPoint" />
            <mxPoint x="-40" y="32" as="offset" />
          </mxGeometry>
        </mxCell>
        <mxCell id="zkfFHV4jXpPFQw0GAbJ--27" value="N" style="resizable=0;align=left;verticalAlign=bottom;labelBackgroundColor=none;fontSize=12;" parent="zkfFHV4jXpPFQw0GAbJ--26" connectable="0" vertex="1">
          <mxGeometry x="-1" relative="1" as="geometry">
            <mxPoint y="4" as="offset" />
          </mxGeometry>
        </mxCell>
        <mxCell id="zkfFHV4jXpPFQw0GAbJ--28" value="N" style="resizable=0;align=right;verticalAlign=bottom;labelBackgroundColor=none;fontSize=12;" parent="zkfFHV4jXpPFQw0GAbJ--26" connectable="0" vertex="1">
          <mxGeometry x="1" relative="1" as="geometry">
            <mxPoint x="-7" y="4" as="offset" />
          </mxGeometry>
        </mxCell>
        <mxCell id="voTmLPjWdt1lhBZXO9Mf-0" value="Car" style="shape=table;startSize=30;container=1;collapsible=0;childLayout=tableLayout;strokeColor=default;fontSize=16;" vertex="1" parent="WIyWlLk6GJQsqaUBKTNV-1">
          <mxGeometry x="140" y="280" width="260" height="110" as="geometry" />
        </mxCell>
        <mxCell id="voTmLPjWdt1lhBZXO9Mf-1" value="" style="shape=tableRow;horizontal=0;startSize=0;swimlaneHead=0;swimlaneBody=0;strokeColor=inherit;top=0;left=0;bottom=0;right=0;collapsible=0;dropTarget=0;fillColor=none;points=[[0,0.5],[1,0.5]];portConstraint=eastwest;fontSize=16;" vertex="1" parent="voTmLPjWdt1lhBZXO9Mf-0">
          <mxGeometry y="30" width="260" height="26" as="geometry" />
        </mxCell>
        <mxCell id="voTmLPjWdt1lhBZXO9Mf-2" value="ID" style="shape=partialRectangle;html=1;whiteSpace=wrap;connectable=0;strokeColor=inherit;overflow=hidden;fillColor=none;top=0;left=0;bottom=0;right=0;pointerEvents=1;fontSize=16;" vertex="1" parent="voTmLPjWdt1lhBZXO9Mf-1">
          <mxGeometry width="87" height="26" as="geometry">
            <mxRectangle width="87" height="26" as="alternateBounds" />
          </mxGeometry>
        </mxCell>
        <mxCell id="voTmLPjWdt1lhBZXO9Mf-3" value="body" style="shape=partialRectangle;html=1;whiteSpace=wrap;connectable=0;strokeColor=inherit;overflow=hidden;fillColor=none;top=0;left=0;bottom=0;right=0;pointerEvents=1;fontSize=16;" vertex="1" parent="voTmLPjWdt1lhBZXO9Mf-1">
          <mxGeometry x="87" width="86" height="26" as="geometry">
            <mxRectangle width="86" height="26" as="alternateBounds" />
          </mxGeometry>
        </mxCell>
        <mxCell id="voTmLPjWdt1lhBZXO9Mf-4" value="doors" style="shape=partialRectangle;html=1;whiteSpace=wrap;connectable=0;strokeColor=inherit;overflow=hidden;fillColor=none;top=0;left=0;bottom=0;right=0;pointerEvents=1;fontSize=16;" vertex="1" parent="voTmLPjWdt1lhBZXO9Mf-1">
          <mxGeometry x="173" width="87" height="26" as="geometry">
            <mxRectangle width="87" height="26" as="alternateBounds" />
          </mxGeometry>
        </mxCell>
        <mxCell id="voTmLPjWdt1lhBZXO9Mf-5" value="" style="shape=tableRow;horizontal=0;startSize=0;swimlaneHead=0;swimlaneBody=0;strokeColor=inherit;top=0;left=0;bottom=0;right=0;collapsible=0;dropTarget=0;fillColor=none;points=[[0,0.5],[1,0.5]];portConstraint=eastwest;fontSize=16;" vertex="1" parent="voTmLPjWdt1lhBZXO9Mf-0">
          <mxGeometry y="56" width="260" height="28" as="geometry" />
        </mxCell>
        <mxCell id="voTmLPjWdt1lhBZXO9Mf-6" value="1" style="shape=partialRectangle;html=1;whiteSpace=wrap;connectable=0;strokeColor=inherit;overflow=hidden;fillColor=none;top=0;left=0;bottom=0;right=0;pointerEvents=1;fontSize=16;" vertex="1" parent="voTmLPjWdt1lhBZXO9Mf-5">
          <mxGeometry width="87" height="28" as="geometry">
            <mxRectangle width="87" height="28" as="alternateBounds" />
          </mxGeometry>
        </mxCell>
        <mxCell id="voTmLPjWdt1lhBZXO9Mf-7" value="sedan" style="shape=partialRectangle;html=1;whiteSpace=wrap;connectable=0;strokeColor=inherit;overflow=hidden;fillColor=none;top=0;left=0;bottom=0;right=0;pointerEvents=1;fontSize=16;" vertex="1" parent="voTmLPjWdt1lhBZXO9Mf-5">
          <mxGeometry x="87" width="86" height="28" as="geometry">
            <mxRectangle width="86" height="28" as="alternateBounds" />
          </mxGeometry>
        </mxCell>
        <mxCell id="voTmLPjWdt1lhBZXO9Mf-8" value="4" style="shape=partialRectangle;html=1;whiteSpace=wrap;connectable=0;strokeColor=inherit;overflow=hidden;fillColor=none;top=0;left=0;bottom=0;right=0;pointerEvents=1;fontSize=16;" vertex="1" parent="voTmLPjWdt1lhBZXO9Mf-5">
          <mxGeometry x="173" width="87" height="28" as="geometry">
            <mxRectangle width="87" height="28" as="alternateBounds" />
          </mxGeometry>
        </mxCell>
        <mxCell id="voTmLPjWdt1lhBZXO9Mf-9" value="" style="shape=tableRow;horizontal=0;startSize=0;swimlaneHead=0;swimlaneBody=0;strokeColor=inherit;top=0;left=0;bottom=0;right=0;collapsible=0;dropTarget=0;fillColor=none;points=[[0,0.5],[1,0.5]];portConstraint=eastwest;fontSize=16;" vertex="1" parent="voTmLPjWdt1lhBZXO9Mf-0">
          <mxGeometry y="84" width="260" height="26" as="geometry" />
        </mxCell>
        <mxCell id="voTmLPjWdt1lhBZXO9Mf-10" value="2" style="shape=partialRectangle;html=1;whiteSpace=wrap;connectable=0;strokeColor=inherit;overflow=hidden;fillColor=none;top=0;left=0;bottom=0;right=0;pointerEvents=1;fontSize=16;" vertex="1" parent="voTmLPjWdt1lhBZXO9Mf-9">
          <mxGeometry width="87" height="26" as="geometry">
            <mxRectangle width="87" height="26" as="alternateBounds" />
          </mxGeometry>
        </mxCell>
        <mxCell id="voTmLPjWdt1lhBZXO9Mf-11" value="hatch" style="shape=partialRectangle;html=1;whiteSpace=wrap;connectable=0;strokeColor=inherit;overflow=hidden;fillColor=none;top=0;left=0;bottom=0;right=0;pointerEvents=1;fontSize=16;" vertex="1" parent="voTmLPjWdt1lhBZXO9Mf-9">
          <mxGeometry x="87" width="86" height="26" as="geometry">
            <mxRectangle width="86" height="26" as="alternateBounds" />
          </mxGeometry>
        </mxCell>
        <mxCell id="voTmLPjWdt1lhBZXO9Mf-12" value="5" style="shape=partialRectangle;html=1;whiteSpace=wrap;connectable=0;strokeColor=inherit;overflow=hidden;fillColor=none;top=0;left=0;bottom=0;right=0;pointerEvents=1;fontSize=16;" vertex="1" parent="voTmLPjWdt1lhBZXO9Mf-9">
          <mxGeometry x="173" width="87" height="26" as="geometry">
            <mxRectangle width="87" height="26" as="alternateBounds" />
          </mxGeometry>
        </mxCell>
        <mxCell id="voTmLPjWdt1lhBZXO9Mf-13" value="Driver" style="shape=table;startSize=30;container=1;collapsible=0;childLayout=tableLayout;strokeColor=default;fontSize=16;" vertex="1" parent="WIyWlLk6GJQsqaUBKTNV-1">
          <mxGeometry x="490" y="280" width="260" height="110" as="geometry" />
        </mxCell>
        <mxCell id="voTmLPjWdt1lhBZXO9Mf-14" value="" style="shape=tableRow;horizontal=0;startSize=0;swimlaneHead=0;swimlaneBody=0;strokeColor=inherit;top=0;left=0;bottom=0;right=0;collapsible=0;dropTarget=0;fillColor=none;points=[[0,0.5],[1,0.5]];portConstraint=eastwest;fontSize=16;" vertex="1" parent="voTmLPjWdt1lhBZXO9Mf-13">
          <mxGeometry y="30" width="260" height="27" as="geometry" />
        </mxCell>
        <mxCell id="voTmLPjWdt1lhBZXO9Mf-15" value="ID" style="shape=partialRectangle;html=1;whiteSpace=wrap;connectable=0;strokeColor=inherit;overflow=hidden;fillColor=none;top=0;left=0;bottom=0;right=0;pointerEvents=1;fontSize=16;" vertex="1" parent="voTmLPjWdt1lhBZXO9Mf-14">
          <mxGeometry width="130" height="27" as="geometry">
            <mxRectangle width="130" height="27" as="alternateBounds" />
          </mxGeometry>
        </mxCell>
        <mxCell id="voTmLPjWdt1lhBZXO9Mf-16" value="name" style="shape=partialRectangle;html=1;whiteSpace=wrap;connectable=0;strokeColor=inherit;overflow=hidden;fillColor=none;top=0;left=0;bottom=0;right=0;pointerEvents=1;fontSize=16;" vertex="1" parent="voTmLPjWdt1lhBZXO9Mf-14">
          <mxGeometry x="130" width="130" height="27" as="geometry">
            <mxRectangle width="130" height="27" as="alternateBounds" />
          </mxGeometry>
        </mxCell>
        <mxCell id="voTmLPjWdt1lhBZXO9Mf-18" value="" style="shape=tableRow;horizontal=0;startSize=0;swimlaneHead=0;swimlaneBody=0;strokeColor=inherit;top=0;left=0;bottom=0;right=0;collapsible=0;dropTarget=0;fillColor=none;points=[[0,0.5],[1,0.5]];portConstraint=eastwest;fontSize=16;" vertex="1" parent="voTmLPjWdt1lhBZXO9Mf-13">
          <mxGeometry y="57" width="260" height="26" as="geometry" />
        </mxCell>
        <mxCell id="voTmLPjWdt1lhBZXO9Mf-19" value="XY1234" style="shape=partialRectangle;html=1;whiteSpace=wrap;connectable=0;strokeColor=inherit;overflow=hidden;fillColor=none;top=0;left=0;bottom=0;right=0;pointerEvents=1;fontSize=16;" vertex="1" parent="voTmLPjWdt1lhBZXO9Mf-18">
          <mxGeometry width="130" height="26" as="geometry">
            <mxRectangle width="130" height="26" as="alternateBounds" />
          </mxGeometry>
        </mxCell>
        <mxCell id="voTmLPjWdt1lhBZXO9Mf-20" value="John Doe" style="shape=partialRectangle;html=1;whiteSpace=wrap;connectable=0;strokeColor=inherit;overflow=hidden;fillColor=none;top=0;left=0;bottom=0;right=0;pointerEvents=1;fontSize=16;" vertex="1" parent="voTmLPjWdt1lhBZXO9Mf-18">
          <mxGeometry x="130" width="130" height="26" as="geometry">
            <mxRectangle width="130" height="26" as="alternateBounds" />
          </mxGeometry>
        </mxCell>
        <mxCell id="voTmLPjWdt1lhBZXO9Mf-22" value="" style="shape=tableRow;horizontal=0;startSize=0;swimlaneHead=0;swimlaneBody=0;strokeColor=inherit;top=0;left=0;bottom=0;right=0;collapsible=0;dropTarget=0;fillColor=none;points=[[0,0.5],[1,0.5]];portConstraint=eastwest;fontSize=16;" vertex="1" parent="voTmLPjWdt1lhBZXO9Mf-13">
          <mxGeometry y="83" width="260" height="27" as="geometry" />
        </mxCell>
        <mxCell id="voTmLPjWdt1lhBZXO9Mf-23" value="AB5678" style="shape=partialRectangle;html=1;whiteSpace=wrap;connectable=0;strokeColor=inherit;overflow=hidden;fillColor=none;top=0;left=0;bottom=0;right=0;pointerEvents=1;fontSize=16;" vertex="1" parent="voTmLPjWdt1lhBZXO9Mf-22">
          <mxGeometry width="130" height="27" as="geometry">
            <mxRectangle width="130" height="27" as="alternateBounds" />
          </mxGeometry>
        </mxCell>
        <mxCell id="voTmLPjWdt1lhBZXO9Mf-24" value="Mary Jane" style="shape=partialRectangle;html=1;whiteSpace=wrap;connectable=0;strokeColor=inherit;overflow=hidden;fillColor=none;top=0;left=0;bottom=0;right=0;pointerEvents=1;fontSize=16;" vertex="1" parent="voTmLPjWdt1lhBZXO9Mf-22">
          <mxGeometry x="130" width="130" height="27" as="geometry">
            <mxRectangle width="130" height="27" as="alternateBounds" />
          </mxGeometry>
        </mxCell>
        <mxCell id="voTmLPjWdt1lhBZXO9Mf-26" value="Car_Driver" style="shape=table;startSize=30;container=1;collapsible=0;childLayout=tableLayout;strokeColor=default;fontSize=16;" vertex="1" parent="WIyWlLk6GJQsqaUBKTNV-1">
          <mxGeometry x="290" y="420" width="290" height="164" as="geometry" />
        </mxCell>
        <mxCell id="voTmLPjWdt1lhBZXO9Mf-27" value="" style="shape=tableRow;horizontal=0;startSize=0;swimlaneHead=0;swimlaneBody=0;strokeColor=inherit;top=0;left=0;bottom=0;right=0;collapsible=0;dropTarget=0;fillColor=none;points=[[0,0.5],[1,0.5]];portConstraint=eastwest;fontSize=16;" vertex="1" parent="voTmLPjWdt1lhBZXO9Mf-26">
          <mxGeometry y="30" width="290" height="27" as="geometry" />
        </mxCell>
        <mxCell id="voTmLPjWdt1lhBZXO9Mf-28" value="ID" style="shape=partialRectangle;html=1;whiteSpace=wrap;connectable=0;strokeColor=inherit;overflow=hidden;fillColor=none;top=0;left=0;bottom=0;right=0;pointerEvents=1;fontSize=16;" vertex="1" parent="voTmLPjWdt1lhBZXO9Mf-27">
          <mxGeometry width="96" height="27" as="geometry">
            <mxRectangle width="96" height="27" as="alternateBounds" />
          </mxGeometry>
        </mxCell>
        <mxCell id="voTmLPjWdt1lhBZXO9Mf-29" value="Car_ID" style="shape=partialRectangle;html=1;whiteSpace=wrap;connectable=0;strokeColor=inherit;overflow=hidden;fillColor=none;top=0;left=0;bottom=0;right=0;pointerEvents=1;fontSize=16;" vertex="1" parent="voTmLPjWdt1lhBZXO9Mf-27">
          <mxGeometry x="96" width="98" height="27" as="geometry">
            <mxRectangle width="98" height="27" as="alternateBounds" />
          </mxGeometry>
        </mxCell>
        <mxCell id="voTmLPjWdt1lhBZXO9Mf-30" value="Driver_ID" style="shape=partialRectangle;html=1;whiteSpace=wrap;connectable=0;strokeColor=inherit;overflow=hidden;fillColor=none;top=0;left=0;bottom=0;right=0;pointerEvents=1;fontSize=16;" vertex="1" parent="voTmLPjWdt1lhBZXO9Mf-27">
          <mxGeometry x="194" width="96" height="27" as="geometry">
            <mxRectangle width="96" height="27" as="alternateBounds" />
          </mxGeometry>
        </mxCell>
        <mxCell id="voTmLPjWdt1lhBZXO9Mf-31" value="" style="shape=tableRow;horizontal=0;startSize=0;swimlaneHead=0;swimlaneBody=0;strokeColor=inherit;top=0;left=0;bottom=0;right=0;collapsible=0;dropTarget=0;fillColor=none;points=[[0,0.5],[1,0.5]];portConstraint=eastwest;fontSize=16;" vertex="1" parent="voTmLPjWdt1lhBZXO9Mf-26">
          <mxGeometry y="57" width="290" height="26" as="geometry" />
        </mxCell>
        <mxCell id="voTmLPjWdt1lhBZXO9Mf-32" value="1" style="shape=partialRectangle;html=1;whiteSpace=wrap;connectable=0;strokeColor=inherit;overflow=hidden;fillColor=none;top=0;left=0;bottom=0;right=0;pointerEvents=1;fontSize=16;" vertex="1" parent="voTmLPjWdt1lhBZXO9Mf-31">
          <mxGeometry width="96" height="26" as="geometry">
            <mxRectangle width="96" height="26" as="alternateBounds" />
          </mxGeometry>
        </mxCell>
        <mxCell id="voTmLPjWdt1lhBZXO9Mf-33" value="1" style="shape=partialRectangle;html=1;whiteSpace=wrap;connectable=0;strokeColor=inherit;overflow=hidden;fillColor=none;top=0;left=0;bottom=0;right=0;pointerEvents=1;fontSize=16;" vertex="1" parent="voTmLPjWdt1lhBZXO9Mf-31">
          <mxGeometry x="96" width="98" height="26" as="geometry">
            <mxRectangle width="98" height="26" as="alternateBounds" />
          </mxGeometry>
        </mxCell>
        <mxCell id="voTmLPjWdt1lhBZXO9Mf-34" value="XY1234" style="shape=partialRectangle;html=1;whiteSpace=wrap;connectable=0;strokeColor=inherit;overflow=hidden;fillColor=none;top=0;left=0;bottom=0;right=0;pointerEvents=1;fontSize=16;" vertex="1" parent="voTmLPjWdt1lhBZXO9Mf-31">
          <mxGeometry x="194" width="96" height="26" as="geometry">
            <mxRectangle width="96" height="26" as="alternateBounds" />
          </mxGeometry>
        </mxCell>
        <mxCell id="voTmLPjWdt1lhBZXO9Mf-35" value="" style="shape=tableRow;horizontal=0;startSize=0;swimlaneHead=0;swimlaneBody=0;strokeColor=inherit;top=0;left=0;bottom=0;right=0;collapsible=0;dropTarget=0;fillColor=none;points=[[0,0.5],[1,0.5]];portConstraint=eastwest;fontSize=16;" vertex="1" parent="voTmLPjWdt1lhBZXO9Mf-26">
          <mxGeometry y="83" width="290" height="27" as="geometry" />
        </mxCell>
        <mxCell id="voTmLPjWdt1lhBZXO9Mf-36" value="2" style="shape=partialRectangle;html=1;whiteSpace=wrap;connectable=0;strokeColor=inherit;overflow=hidden;fillColor=none;top=0;left=0;bottom=0;right=0;pointerEvents=1;fontSize=16;" vertex="1" parent="voTmLPjWdt1lhBZXO9Mf-35">
          <mxGeometry width="96" height="27" as="geometry">
            <mxRectangle width="96" height="27" as="alternateBounds" />
          </mxGeometry>
        </mxCell>
        <mxCell id="voTmLPjWdt1lhBZXO9Mf-37" value="2" style="shape=partialRectangle;html=1;whiteSpace=wrap;connectable=0;strokeColor=inherit;overflow=hidden;fillColor=none;top=0;left=0;bottom=0;right=0;pointerEvents=1;fontSize=16;" vertex="1" parent="voTmLPjWdt1lhBZXO9Mf-35">
          <mxGeometry x="96" width="98" height="27" as="geometry">
            <mxRectangle width="98" height="27" as="alternateBounds" />
          </mxGeometry>
        </mxCell>
        <mxCell id="voTmLPjWdt1lhBZXO9Mf-38" value="XY1234" style="shape=partialRectangle;html=1;whiteSpace=wrap;connectable=0;strokeColor=inherit;overflow=hidden;fillColor=none;top=0;left=0;bottom=0;right=0;pointerEvents=1;fontSize=16;" vertex="1" parent="voTmLPjWdt1lhBZXO9Mf-35">
          <mxGeometry x="194" width="96" height="27" as="geometry">
            <mxRectangle width="96" height="27" as="alternateBounds" />
          </mxGeometry>
        </mxCell>
        <mxCell id="voTmLPjWdt1lhBZXO9Mf-39" style="shape=tableRow;horizontal=0;startSize=0;swimlaneHead=0;swimlaneBody=0;strokeColor=inherit;top=0;left=0;bottom=0;right=0;collapsible=0;dropTarget=0;fillColor=none;points=[[0,0.5],[1,0.5]];portConstraint=eastwest;fontSize=16;" vertex="1" parent="voTmLPjWdt1lhBZXO9Mf-26">
          <mxGeometry y="110" width="290" height="27" as="geometry" />
        </mxCell>
        <mxCell id="voTmLPjWdt1lhBZXO9Mf-40" value="3" style="shape=partialRectangle;html=1;whiteSpace=wrap;connectable=0;strokeColor=inherit;overflow=hidden;fillColor=none;top=0;left=0;bottom=0;right=0;pointerEvents=1;fontSize=16;" vertex="1" parent="voTmLPjWdt1lhBZXO9Mf-39">
          <mxGeometry width="96" height="27" as="geometry">
            <mxRectangle width="96" height="27" as="alternateBounds" />
          </mxGeometry>
        </mxCell>
        <mxCell id="voTmLPjWdt1lhBZXO9Mf-41" value="1" style="shape=partialRectangle;html=1;whiteSpace=wrap;connectable=0;strokeColor=inherit;overflow=hidden;fillColor=none;top=0;left=0;bottom=0;right=0;pointerEvents=1;fontSize=16;" vertex="1" parent="voTmLPjWdt1lhBZXO9Mf-39">
          <mxGeometry x="96" width="98" height="27" as="geometry">
            <mxRectangle width="98" height="27" as="alternateBounds" />
          </mxGeometry>
        </mxCell>
        <mxCell id="voTmLPjWdt1lhBZXO9Mf-42" value="AB5678" style="shape=partialRectangle;html=1;whiteSpace=wrap;connectable=0;strokeColor=inherit;overflow=hidden;fillColor=none;top=0;left=0;bottom=0;right=0;pointerEvents=1;fontSize=16;" vertex="1" parent="voTmLPjWdt1lhBZXO9Mf-39">
          <mxGeometry x="194" width="96" height="27" as="geometry">
            <mxRectangle width="96" height="27" as="alternateBounds" />
          </mxGeometry>
        </mxCell>
        <mxCell id="voTmLPjWdt1lhBZXO9Mf-43" style="shape=tableRow;horizontal=0;startSize=0;swimlaneHead=0;swimlaneBody=0;strokeColor=inherit;top=0;left=0;bottom=0;right=0;collapsible=0;dropTarget=0;fillColor=none;points=[[0,0.5],[1,0.5]];portConstraint=eastwest;fontSize=16;" vertex="1" parent="voTmLPjWdt1lhBZXO9Mf-26">
          <mxGeometry y="137" width="290" height="27" as="geometry" />
        </mxCell>
        <mxCell id="voTmLPjWdt1lhBZXO9Mf-44" value="4" style="shape=partialRectangle;html=1;whiteSpace=wrap;connectable=0;strokeColor=inherit;overflow=hidden;fillColor=none;top=0;left=0;bottom=0;right=0;pointerEvents=1;fontSize=16;" vertex="1" parent="voTmLPjWdt1lhBZXO9Mf-43">
          <mxGeometry width="96" height="27" as="geometry">
            <mxRectangle width="96" height="27" as="alternateBounds" />
          </mxGeometry>
        </mxCell>
        <mxCell id="voTmLPjWdt1lhBZXO9Mf-45" value="2" style="shape=partialRectangle;html=1;whiteSpace=wrap;connectable=0;strokeColor=inherit;overflow=hidden;fillColor=none;top=0;left=0;bottom=0;right=0;pointerEvents=1;fontSize=16;" vertex="1" parent="voTmLPjWdt1lhBZXO9Mf-43">
          <mxGeometry x="96" width="98" height="27" as="geometry">
            <mxRectangle width="98" height="27" as="alternateBounds" />
          </mxGeometry>
        </mxCell>
        <mxCell id="voTmLPjWdt1lhBZXO9Mf-46" value="AB5678" style="shape=partialRectangle;html=1;whiteSpace=wrap;connectable=0;strokeColor=inherit;overflow=hidden;fillColor=none;top=0;left=0;bottom=0;right=0;pointerEvents=1;fontSize=16;" vertex="1" parent="voTmLPjWdt1lhBZXO9Mf-43">
          <mxGeometry x="194" width="96" height="27" as="geometry">
            <mxRectangle width="96" height="27" as="alternateBounds" />
          </mxGeometry>
        </mxCell>
      </root>
    </mxGraphModel>
  </diagram>
</mxfile>
